<svg width="40" height="30" viewBox="0 0 40 30" fill="none" xmlns="http://www.w3.org/2000/svg">
<path d="M18.5548 21.7419C16.9448 21.7419 15.6464 22.7145 15.6464 23.9232C15.6464 25.1244 16.9448 26.1 18.5548 26.1C20.158 26.1 21.4639 25.1244 21.4639 23.9232C21.4639 22.7145 20.158 21.7419 18.5548 21.7419Z" fill="#F9F9F9"/>
<path d="M30.4084 21.7419C28.8012 21.7419 27.5004 22.7145 27.5004 23.9232C27.5004 25.1244 28.8011 26.1 30.4084 26.1C32.0116 26.1 33.3156 25.1244 33.3156 23.9232C33.3156 22.7145 32.0116 21.7419 30.4084 21.7419Z" fill="#F9F9F9"/>
<path d="M32.782 12.0384H16.1764L16.8392 13.6749H32.1244L32.782 12.0384Z" fill="#F9F9F9"/>
<path d="M30.8048 16.9425L31.4639 15.309H17.5016L18.1632 16.9425H30.8048Z" fill="#F9F9F9"/>
<path d="M14.55 7.99502L15.5116 10.4064H35.6664L32.3804 18.5682H16.5916L10.6671 3.90002H0V6.29311H8.27521L14.2131 20.9781H34.7484L40 7.99502H14.55Z" fill="#F9F9F9"/>
</svg>
