<svg width="64" height="62" viewBox="0 0 64 62" fill="none" xmlns="http://www.w3.org/2000/svg">
<g clip-path="url(#clip0)">
<path d="M33.973 0C35.3723 0.20336 36.7919 0.33728 38.1679 0.62248C43.9424 1.82528 48.7308 4.30528 52.0646 8.57832C53.5832 10.5276 54.4821 12.6827 54.7439 15.0114C54.7875 15.3983 54.9272 15.5942 55.3781 15.743C57.8392 16.554 59.3432 18.409 59.3664 20.651C59.3926 23.0318 59.4392 25.415 59.3548 27.7934C59.2704 30.0923 57.9817 31.7837 55.4188 32.674C54.9708 32.8327 54.4588 32.8898 53.9672 32.922C53.3534 32.9642 52.7308 32.9369 52.1141 32.9344C49.8304 32.922 49.0421 32.4954 48.0152 30.6602C46.2784 34.7423 43.8552 38.3706 39.8668 41.1159C40.6872 42.8048 41.7868 44.3176 43.4537 45.4956C44.2217 46.0387 45.0974 46.3462 46.0835 46.505C50.9301 47.2862 55.6661 48.3526 60.0501 50.3564C61.8014 51.1574 62.9621 52.3057 63.2763 53.9722C63.5614 55.4826 63.7446 57.0053 63.9134 58.528C63.9948 59.2497 63.9424 59.9813 63.9424 60.7079C63.9424 61.6602 63.5643 61.9876 62.4588 61.9901C60.9839 61.9926 59.509 61.9901 58.0341 61.9901C39.2414 61.9901 20.4486 61.9876 1.6559 62C0.960631 62.0025 0.402085 61.8859 0.00354004 61.385C0.00354004 60.135 0.00354004 58.8826 0.00354004 57.6327C0.146085 56.6953 0.285722 55.7578 0.431176 54.8229C0.768631 52.6752 1.93227 51.031 4.35845 50.1382C4.96645 49.915 5.54536 49.6298 6.15336 49.4041C9.80427 48.0525 13.6181 47.1374 17.5337 46.5694C19.2384 46.3214 20.5243 45.6122 21.6239 44.5532C22.6886 43.5314 23.477 42.3708 24.0792 41.0936C23.7446 40.858 23.4101 40.6373 23.0901 40.3967C22.3599 39.8462 21.7344 39.06 20.8821 38.7872C20.0094 38.5094 18.9126 38.7227 17.9148 38.7252C14.6799 38.7277 12.629 37.3885 11.8377 34.7324C11.6661 34.1521 11.5614 33.5569 11.4392 33.0336C10.4763 32.9319 9.50754 32.9691 8.66099 32.7162C6.10099 31.9548 4.57663 30.0204 4.5679 27.6966C4.55627 25.4374 4.57081 23.1806 4.5679 20.9213C4.56499 18.4462 5.95554 16.6582 8.66972 15.7158C9.03918 15.5868 9.14099 15.4281 9.1759 15.1082C9.37372 13.2432 9.96718 11.4626 11.0261 9.81584C14.2494 4.80376 19.3897 1.9716 25.781 0.62248C27.1541 0.32984 28.5766 0.20336 29.9759 0C31.3083 0 32.6406 0 33.973 0ZM61.7228 60.0284C61.5686 58.4462 61.3883 56.9433 61.2864 55.4379C61.1584 53.5333 59.9861 52.3702 57.9759 51.5939C54.517 50.2597 50.9214 49.3148 47.2123 48.675C45.3446 48.3526 43.4799 48.0922 41.9614 46.9737C39.7824 45.3716 38.3715 43.3405 37.3214 41.106C37.0886 40.6075 37.4028 40.2504 37.8654 39.9106C38.9243 39.1369 40.021 38.3805 40.949 37.5001C43.5992 34.9903 45.1526 31.9523 46.4035 28.8077C47.8697 25.1199 48.1926 21.3082 47.6341 17.4567C47.2879 15.0586 46.3046 12.8414 44.5824 10.8946C39.3054 4.93024 29.1875 4.56568 23.1221 7.94096C18.5141 10.5053 16.5068 14.3046 16.1315 18.8257C15.7563 23.3542 16.6435 27.714 18.9272 31.8283C19.7941 33.3882 20.8966 34.8564 21.9119 36.3568C22.0312 36.5304 22.2814 36.7561 22.4734 36.761C24.1024 36.7933 25.7344 36.7784 27.3461 36.7784C27.7301 35.3747 28.4486 34.8787 30.0515 34.8663C30.6217 34.8614 31.1948 34.8638 31.765 34.8688C33.2254 34.8762 34.2523 35.6698 34.2552 36.7908C34.2581 37.9217 33.2515 38.7351 31.7941 38.7401C29.6064 38.7475 27.4159 38.7326 25.2283 38.7252C24.9868 38.7252 24.7483 38.7252 24.5068 38.7252C25.0188 39.2336 25.5541 39.5957 26.1097 39.9404C26.6392 40.2678 26.8283 40.6695 26.5752 41.2002C25.6384 43.1619 24.4312 44.9773 22.6304 46.4727C21.4494 47.4548 20.0763 48.117 18.4326 48.4022C16.4806 48.7394 14.5257 49.0966 12.6028 49.538C9.87118 50.1654 7.22099 50.9814 4.74536 52.1792C3.68936 52.6901 3.0639 53.4093 2.88063 54.4038C2.70318 55.3784 2.5199 56.358 2.43845 57.3401C2.36281 58.2329 2.4239 59.1306 2.4239 60.0284C22.1301 60.0284 41.8421 60.0284 61.7228 60.0284ZM52.4806 15.4033C52.4865 15.371 52.501 15.3314 52.4981 15.2917C52.4894 15.19 52.4748 15.0908 52.4603 14.9916C51.8785 11.0112 49.6355 7.79712 45.8944 5.43616C38.8457 0.98456 31.0959 0.35216 23.0086 2.99336C18.0341 4.61776 14.357 7.53424 12.373 11.8296C11.8348 12.9927 11.5294 14.2005 11.4334 15.5124C11.9744 15.5124 12.4544 15.4702 12.917 15.5248C13.3708 15.5769 13.8101 15.7257 14.2668 15.8373C16.5504 8.57336 21.9963 4.29536 30.8864 3.95312C40.7483 3.57616 47.029 7.76736 49.6646 15.7257C50.613 15.6166 51.5177 15.5149 52.4806 15.4033ZM13.7083 24.2569C13.7083 24.2569 13.7083 24.2569 13.7112 24.2569C13.7112 22.4614 13.7141 20.6658 13.7112 18.8728C13.7083 17.8039 13.2632 17.4369 11.9832 17.4369C11.5323 17.4369 11.0726 17.4865 10.6304 17.4319C8.84718 17.2137 6.93881 18.6397 6.88354 20.4625C6.81081 22.9425 6.83118 25.425 6.87772 27.905C6.9039 29.331 7.96281 30.5784 9.49299 30.9058C10.3221 31.0818 11.2384 30.9876 12.1141 30.9926C13.2457 31.0025 13.6995 30.6181 13.7054 29.6434C13.7141 27.8479 13.7083 26.0524 13.7083 24.2569ZM50.2319 24.2147C50.2319 24.2147 50.2319 24.2147 50.2348 24.2147C50.2348 26.0499 50.2348 27.8851 50.2319 29.7203C50.2319 30.2734 50.4414 30.8562 51.0872 30.9033C52.2741 30.9876 53.5483 31.0694 54.6654 30.7966C56.2537 30.4073 57.0246 29.2342 57.0654 27.8628C57.1352 25.425 57.1235 22.9822 57.0712 20.5418C57.0334 18.7984 55.2792 17.1988 53.2719 17.4245C52.8035 17.4766 52.3235 17.4294 51.8465 17.4294C50.6857 17.4319 50.2319 17.8213 50.2319 18.8306C50.229 20.6237 50.2319 22.4192 50.2319 24.2147ZM15.9075 30.9206C15.4828 31.3522 15.0232 31.9846 14.3774 32.4161C13.8886 32.741 13.7461 33.0014 13.8421 33.4899C14.3686 36.1286 15.8174 37.1752 19.1948 36.699C18.0806 34.7398 16.949 32.7534 15.9075 30.9206Z" fill="#F9F9F9"/>
</g>
<defs>
<clipPath id="clip0">
<rect width="64" height="62" fill="white"/>
</clipPath>
</defs>
</svg>
