<svg width="65" height="63" viewBox="0 0 65 63" fill="none" xmlns="http://www.w3.org/2000/svg">
<path d="M62.5456 15.5891H44.6995L48.7773 13.631C49.0162 13.5202 49.2351 13.3663 49.4257 13.1815C50.9274 11.7246 51.7547 9.78217 51.7547 7.7212C51.7547 5.65588 50.9282 3.71857 49.4257 2.2566C46.3222 -0.750763 41.2806 -0.750763 38.1785 2.2566C38.0101 2.422 37.8676 2.61041 37.7556 2.81392L32.0745 13.0557L26.3941 2.81464C26.2814 2.61113 26.1382 2.42272 25.9697 2.26092C22.8691 -0.753639 17.8246 -0.753639 14.7247 2.26092C11.6241 5.27187 11.6241 10.1706 14.7247 13.1815C14.9132 13.3663 15.1336 13.5202 15.371 13.631L19.4487 15.5891H2.45363C1.09883 15.5891 0 16.6577 0 17.9723V32.1188C0 33.4341 1.09883 34.5006 2.45363 34.5006H5.28862V59.8661C5.28862 61.1814 6.38671 62.2471 7.74225 62.2471H57.4106C58.7647 62.2471 59.865 61.1828 59.865 59.8661V34.5006H62.5456C63.9004 34.5006 65.0007 33.4355 65.0007 32.1188V17.9723C64.9985 16.6577 63.9004 15.5891 62.5456 15.5891ZM29.8739 57.4822V34.5006H35.1877V57.4829H29.8739V57.4822ZM35.2322 29.7357H29.9206V20.3569H35.2322V29.7357ZM41.8749 5.42577C43.0709 4.48012 44.8412 4.54484 45.9556 5.62928C46.5306 6.1866 46.8482 6.92945 46.8482 7.7212C46.8482 8.39717 46.6167 9.04007 46.1856 9.56359L37.1873 13.8812L41.8749 5.42577ZM18.1934 5.62928C19.2684 4.58368 21.1077 4.50313 22.2719 5.42577L26.9587 13.8812L17.9611 9.56359C17.0114 8.40221 17.0886 6.70221 18.1934 5.62928ZM4.90503 20.3569H25.0134V29.7357H4.90503V20.3569ZM10.1937 34.5006H27.4217V57.4829H10.1937V34.5006ZM54.9585 57.4822H37.6391V34.5006H54.9585V57.4822ZM60.0942 29.7357H40.1395V20.3569H60.095V29.7357H60.0942Z" fill="#F9F9F9"/>
</svg>
