<svg width="68" height="62" viewBox="0 0 68 62" fill="none" xmlns="http://www.w3.org/2000/svg">
<path d="M67.6586 28.8821H64.396V15.1984C64.396 11.9178 61.4689 9.24898 57.8709 9.24898H53.4522L48.9302 1.83606C48.241 0.703172 46.9295 0 45.507 0C44.8441 0 44.1863 0.15589 43.6056 0.449711L26.2513 9.2488H6.86643C3.26841 9.2488 0.341309 11.9176 0.341309 15.1982V56.0504C0.341309 59.331 3.26841 61.9998 6.86643 61.9998H57.8709C61.4689 61.9998 64.396 59.331 64.396 56.0504V44.0528H67.6586V28.8821ZM57.8709 11.6286C59.8806 11.6286 61.5224 13.0207 61.7429 14.802H56.8386L54.9044 11.6286H57.8709ZM44.8753 2.5296C45.4873 2.21671 46.311 2.43555 46.6488 2.99135L53.8526 14.8009H20.671L44.8753 2.5296ZM61.7859 56.0504C61.7859 58.0185 60.0293 59.6202 57.8707 59.6202H6.86643C4.7079 59.6202 2.95123 58.0185 2.95123 56.0504V15.1984C2.95123 13.2303 4.7079 11.6286 6.86643 11.6286H21.5584L15.2995 14.8021H7.68212C6.96044 14.8021 6.37705 15.3352 6.37705 15.9921C6.37705 16.6489 6.96044 17.182 7.68212 17.182H10.6054H58.2899H61.7859V28.8832H52.2423C47.8103 28.8832 44.2034 32.172 44.2034 36.2128V36.7245C44.2034 40.7654 47.8106 44.0541 52.2423 44.0541H61.7859V56.0504ZM65.0485 41.6732H64.396H52.2423C49.2486 41.6732 46.8133 39.453 46.8133 36.7232V36.2115C46.8133 33.4819 49.2484 31.2615 52.2423 31.2615H64.396H65.0485V41.6732ZM56.2396 36.5651C56.2396 38.0168 54.9501 39.1923 53.3581 39.1923C51.7659 39.1923 50.4767 38.0166 50.4767 36.5651C50.4767 35.1136 51.7662 33.9379 53.3581 33.9379C54.9503 33.9377 56.2396 35.1145 56.2396 36.5651Z" fill="#F9F9F9"/>
</svg>
