<svg width="80" height="80" viewBox="0 0 80 80" fill="none" xmlns="http://www.w3.org/2000/svg">
<path d="M41.28 32C40.9333 32.0107 40.6 32.1547 40.3547 32.4053L33.32 39.4187L28.9867 35.0987C27.7733 33.8347 25.8133 35.7867 27.08 36.9973L32.368 42.272C32.8933 42.7973 33.7467 42.7973 34.2747 42.272L42.2613 34.3067C43.1413 33.4533 42.4933 32 41.2827 32H41.28ZM1.33333 42.6667H9.33333C10.072 42.6667 10.6667 43.2613 10.6667 44C10.6667 44.7387 10.072 45.3333 9.33333 45.3333H1.33333C0.594667 45.3333 0 44.7387 0 44C0 43.2613 0.594667 42.6667 1.33333 42.6667ZM1.33333 32H9.33333C10.072 32 10.6667 32.5947 10.6667 33.3333C10.6667 34.072 10.072 34.6667 9.33333 34.6667H1.33333C0.594667 34.6667 0 34.072 0 33.3333C0 32.5947 0.594667 32 1.33333 32ZM1.33333 21.3333H9.33333C10.072 21.3333 10.6667 21.928 10.6667 22.6667C10.6667 23.4053 10.072 24 9.33333 24H1.33333C0.594667 24 0 23.4053 0 22.6667C0 21.928 0.594667 21.3333 1.33333 21.3333ZM65.3333 50.6667C61.6667 50.6667 58.6667 53.6667 58.6667 57.3333C58.6667 61 61.6667 64 65.3333 64C69 64 72 61 72 57.3333C72 53.6667 69 50.6667 65.3333 50.6667ZM65.3333 53.3333C67.5573 53.3333 69.3333 55.1093 69.3333 57.3333C69.3333 59.5573 67.5573 61.3333 65.3333 61.3333C63.1093 61.3333 61.3333 59.5573 61.3333 57.3333C61.3333 55.1093 63.1093 53.3333 65.3333 53.3333ZM30.6667 50.6667C27 50.6667 24 53.6667 24 57.3333C24 61 27 64 30.6667 64C34.3333 64 37.3333 61 37.3333 57.3333C37.3333 53.6667 34.3333 50.6667 30.6667 50.6667ZM30.6667 53.3333C32.8907 53.3333 34.6667 55.1093 34.6667 57.3333C34.6667 59.5573 32.8907 61.3333 30.6667 61.3333C28.4427 61.3333 26.6667 59.5573 26.6667 57.3333C26.6667 55.1093 28.4427 53.3333 30.6667 53.3333ZM17.3333 16C15.1413 16 13.3333 17.808 13.3333 20V49.3333C13.3333 51.5253 15.1413 53.3333 17.3333 53.3333H22.6667C24.4693 53.36 24.4693 50.64 22.6667 50.6667H17.3333C16.5707 50.6667 16 50.096 16 49.3333V20C16 19.2373 16.5707 18.6667 17.3333 18.6667H52C52.7627 18.6667 53.3333 19.2373 53.3333 20V50.6667H38.6667C36.9067 50.6667 36.9387 53.36 38.6667 53.3333H57.3333C59.0933 53.3333 59.0773 50.6667 57.3333 50.6667H56V26.6667H67.272L77.3333 42.3893V49.3333C77.3333 50.096 76.7627 50.6667 76 50.6667H73.3333C71.5893 50.6667 71.5893 53.3333 73.3333 53.3333H76C78.192 53.3333 80 51.5253 80 49.3333V42C80 41.7467 79.928 41.4933 79.792 41.28L69.1253 24.6133C68.88 24.232 68.4587 24 68 24H56V20C56 17.808 54.192 16 52 16H17.3333Z" fill="#F9F9F9"/>
</svg>
