<svg width="40" height="30" fill="none" xmlns="http://www.w3.org/2000/svg"><path d="M18.555 21.742c-1.61 0-2.909.973-2.909 2.181 0 1.201 1.299 2.177 2.909 2.177 1.603 0 2.909-.976 2.909-2.177 0-1.208-1.306-2.181-2.91-2.181zm11.853 0c-1.607 0-2.908.973-2.908 2.181 0 1.201 1.301 2.177 2.908 2.177 1.604 0 2.908-.976 2.908-2.177 0-1.208-1.304-2.181-2.908-2.181zm2.374-9.704H16.176l.663 1.637h15.285l.658-1.637zm-1.977 4.904l.659-1.633H17.502l.661 1.633h12.642z" fill="#F9F9F9"/><path d="M14.55 7.995l.962 2.411h20.154l-3.286 8.162H16.592L10.667 3.9H0v2.393h8.275l5.938 14.685h20.535L40 7.995H14.55z" fill="#F9F9F9"/></svg>