<svg width="408" height="78" fill="none" xmlns="http://www.w3.org/2000/svg"><path d="M40.37 42.585a8.22 8.22 0 00-2.25-2.88c-1.845-1.53-4.185-2.34-6.705-3.195-.45-.18-.945-.36-1.395-.495-.36-.135-.72-.225-1.035-.36-4.86-1.8-5.085-2.565-5.085-4.095 0-.99.54-2.205 1.395-3.15.765-.855 2.07-1.845 4.14-1.935 2.16.405 3.78 1.17 5.085 2.475 1.89 2.115 2.385 5.085 2.385 6.48v.63c0 .585.54 1.125 1.17 1.125.585 0 1.08-.45 1.17-1.035 0-.09.045-.405 0-.81v-9.855c0-.63-.54-1.17-1.17-1.17-.585 0-1.17.585-1.17 1.17v2.835c-.225-.315-.45-.63-.72-.945l-.045-.045c-1.665-1.71-3.87-2.745-6.525-3.15-.675-.09-1.35-.18-2.16-.18h-.18c-7.335 0-12.465 4.095-12.465 9.9 0 1.53.27 2.97.81 4.185.45 1.08 1.17 2.07 2.07 2.925 1.755 1.71 4.095 2.61 5.715 3.195l1.71.585c2.565.81 4.275 1.395 5.4 2.115C31.595 47.58 32 48.3 32 49.425c0 4.545-1.755 5.58-4.41 5.67-3.69 0-6.705-1.665-8.91-4.95-1.665-2.475-2.25-5.085-2.295-5.4v-.135c-.225-.54-.72-.9-1.26-.9h-.045c-.54.09-1.08.54-1.08 1.125v11.07c0 .63.585 1.215 1.215 1.215.675 0 1.17-.54 1.17-1.215v-5.04c.945 1.53 2.025 2.835 3.285 3.825 2.25 1.845 4.95 2.745 7.965 2.745 1.125 0 5.04-.135 8.46-2.07 1.575-.855 2.745-1.935 3.6-3.195.99-1.485 1.485-3.195 1.485-5.175 0-1.71-.27-3.15-.81-4.41zM33.53 54.06c.54-1.17.81-2.745.81-4.635 0-4.05-3.42-5.22-8.19-6.84l-.36-.09-1.665-.54c-4.995-1.755-6.93-4.005-6.93-8.055 0-3.645 2.475-6.3 6.525-7.2-1.305 1.395-2.16 3.24-2.16 4.86s.495 2.745 1.575 3.69c1.08.945 2.79 1.71 5.04 2.565.405.225.855.36 1.26.495s.765.225 1.17.405c.045 0 .045 0 .045.045.225.045.45.135.675.225 2.205.765 4.05 1.44 5.4 2.61 1.44 1.215 2.07 2.97 2.07 5.4 0 3.915-2.655 5.985-5.265 7.065z" fill="#41B346"/><path d="M76.12 62c.54 0 .96-.48.96-1.02v-9.06c2.22 4.62 6.84 10.5 15.6 10.5 6.06 0 17.46-2.7 17.46-13.32 0-9.12-6.18-11.22-12.66-13.44-1.02-.42-2.1-.72-3.24-1.14-6.54-2.4-7.14-3.54-7.14-6 0-2.7 2.7-7.2 7.98-7.38 3.06.54 5.34 1.62 7.2 3.48 2.82 3.12 3.36 7.44 3.36 9.06v.84c0 .48.48.9.96.9s.9-.42.96-.9c0 0 .06-.42 0-.96V20.42c0-.48-.42-.96-.96-.96-.48 0-.96.48-.96.96v5.64c-.48-.78-1.26-1.8-2.04-2.76-2.1-2.16-4.86-3.54-8.4-4.02-.96-.18-1.86-.24-2.76-.24h-.24c-9.42 0-16.02 5.16-16.02 12.6 0 8.34 5.94 11.4 11.04 13.14l2.28.78c6.72 2.1 9.6 3.36 9.6 6.78 0 5.82-2.1 7.98-6.48 8.16-12.48 0-15.54-13.86-15.54-14.4-.18-.48-.6-.78-1.08-.78-.42.06-.9.42-.9.9v14.76c0 .54.54 1.02 1.02 1.02zm11.7-19.08c-6.84-2.4-9.66-5.58-9.66-11.28 0-5.64 4.26-9.78 11.16-10.56-2.64 1.98-4.14 5.04-4.14 7.44 0 3.9 2.22 5.4 8.4 7.8 1.14.48 2.16.72 3.3 1.2 6.3 2.28 11.28 3.66 11.28 11.58 0 6.06-4.5 9.12-9 10.56 1.14-1.5 1.86-3.9 1.86-7.32 0-5.1-4.44-6.48-10.98-8.7l-2.22-.72zm77.237 18.12c0-.54-.48-1.02-.96-1.02h-3.3l-16.2-39.96c-.06-.42-.42-.6-.9-.6h-4.92c-.48 0-.78.18-.96.6l-2.7 7.38s0 .06-.06.12l-7.32 18.18s0 .06-.06.12l-5.7 14.16h-5.58c-.54 0-.96.48-.96 1.02 0 .48.42.96.96.96h16.62c.48 0 .96-.48.96-.96 0-.54-.48-1.02-.96-1.02h-8.82l5.1-12.9h13.44l5.22 12.9h-6c-.48 0-1.02.48-1.02 1.02 0 .48.54.96 1.02.96h22.14c.48 0 .96-.48.96-.96zm-29.1-30.54l5.94 14.64h-11.76l5.82-14.64zm1.14-2.64l2.34-6.42h3.6l15.6 38.58h-8.52l-13.02-32.16zm31.002 32.16c-.54 0-1.02.48-1.02 1.02s.48.96 1.02.96h37.32c.48 0 1.02-.42 1.02-.96V48.02c0-.48-.54-1.02-1.02-1.02-.54 0-1.02.54-1.02 1.02v12h-19.38V21.44h5.16c.54 0 .96-.48.96-1.02 0-.48-.42-.96-.96-.96h-22.08c-.54 0-1.02.48-1.02.96 0 .54.48 1.02 1.02 1.02h4.74v38.58h-4.74zm6.66-38.58h8.22v38.58h-8.22V21.44zm82.173 39.6c0-.54-.48-1.02-.96-1.02h-3.3l-16.2-39.96c-.06-.42-.42-.6-.9-.6h-4.92c-.48 0-.78.18-.96.6l-2.7 7.38s0 .06-.06.12l-7.32 18.18s0 .06-.06.12l-5.7 14.16h-5.58c-.54 0-.96.48-.96 1.02 0 .48.42.96.96.96h16.62c.48 0 .96-.48.96-.96 0-.54-.48-1.02-.96-1.02h-8.82l5.1-12.9h13.44l5.22 12.9h-6c-.48 0-1.02.48-1.02 1.02 0 .48.54.96 1.02.96h22.14c.48 0 .96-.48.96-.96zm-29.1-30.54l5.94 14.64h-11.76l5.82-14.64zm1.14-2.64l2.34-6.42h3.6l15.6 38.58h-8.52l-13.02-32.16zM271.494 62h27.54c.54 0 .96-.42.96-.96V47.3c0-.48-.42-.96-.96-.96s-1.02.48-1.02.96v12.72h-24.6l28.26-39c.18-.3.24-.72.06-1.02-.24-.3-.6-.54-.9-.54h-36.48c-.54 0-1.02.48-1.02.96v12.36c0 .54.48.96 1.02.96s1.02-.42 1.02-.96V21.44h21.72l-28.26 39.06c-.24.3-.24.72-.06 1.02.24.3.48.48.9.48h11.82zm18.06-40.56h9.3l-27.9 38.58h-9.36l27.96-38.58zm64.058 39.6c0-.54-.48-1.02-.96-1.02h-3.3l-16.2-39.96c-.06-.42-.42-.6-.9-.6h-4.92c-.48 0-.78.18-.96.6l-2.7 7.38s0 .06-.06.12l-7.32 18.18s0 .06-.06.12l-5.7 14.16h-5.58c-.54 0-.96.48-.96 1.02 0 .48.42.96.96.96h16.62c.48 0 .96-.48.96-.96 0-.54-.48-1.02-.96-1.02h-8.82l5.1-12.9h13.44l5.22 12.9h-6c-.48 0-1.02.48-1.02 1.02 0 .48.54.96 1.02.96h22.14c.48 0 .96-.48.96-.96zm-29.1-30.54l5.94 14.64h-11.76l5.82-14.64zm1.14-2.64l2.34-6.42h3.6l15.6 38.58h-8.52l-13.02-32.16zm33.582 32.16c-.54 0-.96.36-.96 1.02 0 .54.42.96.96.96h21.84c.54 0 1.02-.42 1.02-.96 0-.66-.48-1.02-1.02-1.02h-4.98v-16.5l13.86 18.12c.42.42.6.36.9.36h15.84c.48 0 1.02-.42 1.02-.96 0-.66-.54-1.02-1.02-1.02h-3.24l-14.34-18.6c6-1.86 9.18-5.76 9.18-11.04 0-10.5-9.54-10.92-21-10.92h-18.06c-.54 0-.96.42-.96.96 0 .48.42 1.02.96 1.02h4.74v38.58h-4.74zm16.86-38.58c5.7.3 9 4.86 9 9.24 0 8.1-5.7 9.72-9 9.96v-19.2zm15.12 38.58l-13.32-17.4h2.1c2.4 0 4.56-.12 7.02-.6l13.92 18h-9.72zm5.1-29.64c0 5.88-4.8 8.52-8.88 9.48-1.74.42-3.42.72-5.04.78 2.82-1.86 4.68-4.98 4.68-9.96 0-3.36-1.74-7.02-4.74-9.24 9.12.48 13.98 1.92 13.98 8.94zm-30.3-8.94h8.1v38.58h-8.1V21.44z" fill="#17153D"/><path stroke="#17153D" d="M1.229 17V1M51.5 17V1M1 1.5h51m.771 60.5v16M2.5 62v16m50.5-.5H2"/></svg>